<?xml version="1.0" encoding="UTF-8" standalone="no"?>
<svg width="178px" height="29px" viewBox="0 0 178 29" version="1.1" xmlns="http://www.w3.org/2000/svg" xmlns:xlink="http://www.w3.org/1999/xlink" xmlns:sketch="http://www.bohemiancoding.com/sketch/ns">
    <!-- Generator: Sketch 3.3.2 (12043) - http://www.bohemiancoding.com/sketch -->
    <title>Group</title>
    <desc>Created with Sketch.</desc>
    <defs></defs>
    <g id="Introduction" stroke="none" stroke-width="1" fill="none" fill-rule="evenodd" sketch:type="MSPage">
        <g id="Artboard-2" sketch:type="MSArtboardGroup" transform="translate(-122.000000, -450.000000)">
            <g id="Group" sketch:type="MSLayerGroup" transform="translate(122.000000, 450.000000)">
                <rect id="Rectangle-3" fill="#0B0B0A" sketch:type="MSShapeGroup" x="0" y="0" width="178" height="29" rx="4"></rect>
                <text id="Signin-w/-Github" sketch:type="MSTextLayer" font-family="American Typewriter" font-size="18" font-weight="normal" fill="#FFFFFF">
                    <tspan x="28" y="21">Signin w/ Github</tspan>
                </text>
                <rect id="Rectangle-2" fill="#FFFFFF" sketch:type="MSShapeGroup" x="5" y="5" width="19" height="19" rx="4"></rect>
                <path d="M4.07105263,23.0945263 C4.90242105,23.8992632 5.86347368,24.3161053 7.03294737,24.3161053 L10.2565263,24.3161053 C10.4904211,24.3161053 10.6455789,24.3161053 10.7497895,24.2894737 C10.854,24.2894737 10.9582105,24.2118947 11.0612632,24.1076842 C11.1654737,24.0034737 11.2175789,23.8216842 11.2175789,23.6144211 L11.2175789,22.6267368 L11.2175789,21.1446316 L10.8794737,21.1967368 C10.6722105,21.2233684 10.3862105,21.2488421 10.0747368,21.2488421 C9.73663158,21.2488421 9.39852632,21.1967368 9.06042105,21.1446316 C8.72231579,21.0925263 8.38536842,20.9373684 8.09936842,20.7289474 C7.78673684,20.4950526 7.57947368,20.2090526 7.44978947,19.8454737 L7.31894737,19.5073684 C7.21589474,19.2734737 7.05957895,19.0395789 6.85115789,18.7535789 C6.64389474,18.4942105 6.43547368,18.3124211 6.22821053,18.2082105 L6.124,18.1306316 C6.04642105,18.0785263 5.99431579,18.0264211 5.94221053,17.9476842 C5.86347368,17.8967368 5.838,17.818 5.81136842,17.7658947 C5.78589474,17.6883158 5.78589474,17.6362105 5.86347368,17.5841053 C5.94221053,17.532 6.09736842,17.532 6.30578947,17.532 L6.59178947,17.5586316 C6.77357895,17.6107368 7.00747368,17.7137895 7.29347368,17.9222105 C7.57947368,18.104 7.81336842,18.3645263 7.99515789,18.676 C8.22905263,19.0662105 8.48842105,19.3776842 8.80105263,19.5849474 C9.11252632,19.7933684 9.45063158,19.8975789 9.76210526,19.8975789 C10.0747368,19.8975789 10.3595789,19.8709474 10.5946316,19.82 C10.8273684,19.7933684 11.0357895,19.7157895 11.2442105,19.6115789 C11.3217895,18.962 11.5556842,18.4675789 11.9458947,18.104 C11.3993684,18.0518947 10.9061053,17.9743158 10.4637895,17.8446316 C10.0226316,17.7404211 9.58031579,17.532 9.11252632,17.2726316 C8.64473684,17.0121053 8.25452632,16.7006316 7.94305263,16.3104211 C7.63157895,15.9213684 7.37105263,15.4014737 7.16378947,14.7773684 C6.982,14.1532632 6.87778947,13.4261053 6.87778947,12.5947368 C6.87778947,11.4252632 7.268,10.4375789 8.02063158,9.60505263 C7.65705263,8.72157895 7.68368421,7.73389474 8.12484211,6.64315789 C8.41084211,6.56442105 8.82652632,6.64315789 9.37305263,6.85042105 C9.91842105,7.05884211 10.3341053,7.24063158 10.568,7.39578947 C10.8273684,7.55210526 11.0357895,7.68178947 11.1921053,7.81263158 C12.1010526,7.55210526 13.0366316,7.42242105 13.9722105,7.42242105 C14.9344211,7.42242105 15.87,7.55210526 16.7801053,7.81263158 L17.3254737,7.44789474 C17.6890526,7.214 18.1313684,7.00673684 18.6512632,6.82494737 C19.1711579,6.61652632 19.5602105,6.56442105 19.8207368,6.64315789 C20.2618947,7.73389474 20.314,8.72157895 19.9504211,9.60505263 C20.7042105,10.4375789 21.0944211,11.4252632 21.0944211,12.5947368 C21.0944211,13.4261053 20.9902105,14.1532632 20.8084211,14.7773684 C20.6,15.4269474 20.3406316,15.9213684 20.028,16.3104211 C19.7165263,16.7006316 19.3263158,17.0121053 18.8585263,17.2726316 C18.3907368,17.532 17.9229474,17.7404211 17.4817895,17.8446316 C17.0394737,17.9743158 16.5462105,18.0518947 15.9996842,18.104 C16.4941053,18.5463158 16.7534737,19.2213684 16.7534737,20.1835789 L16.7534737,23.6144211 C16.7534737,23.7962105 16.7801053,23.9258947 16.8322105,24.0301053 C16.8831579,24.1076842 16.9618947,24.1852632 17.0661053,24.2373684 C17.1691579,24.264 17.2478947,24.2894737 17.3509474,24.2894737 C17.4296842,24.3161053 17.5327368,24.3161053 17.6890526,24.3161053 L20.9381053,24.3161053 C22.1075789,24.3161053 23.0686316,23.8992632 23.9011579,23.0945263 C24.7058947,22.262 25.1227368,21.3009474 25.1227368,20.1314737 L25.1227368,6.22631579 C25.1227368,5.05684211 24.7058947,4.09578947 23.9011579,3.26442105 C23.0686316,2.45852632 22.1075789,2.04284211 20.9381053,2.04284211 L7.03294737,2.04284211 C5.86347368,2.04284211 4.90242105,2.45852632 4.07105263,3.26442105 C3.26515789,4.09578947 2.84947368,5.05684211 2.84947368,6.22631579 L2.84947368,20.1314737 C2.84947368,21.3009474 3.26515789,22.262 4.07105263,23.0945263 L4.07105263,23.0945263 Z M6.87778947,18.0785263 C6.95536842,18.1306316 7.00747368,18.104 7.05957895,18.0518947 C7.08505263,17.9743158 7.05957895,17.9222105 6.95536842,17.8701053 C6.85115789,17.8446316 6.79905263,17.8446316 6.77357895,17.8967368 C6.74810526,17.9743158 6.77357895,18.0264211 6.87778947,18.0785263 L6.87778947,18.0785263 Z M7.268,18.4942105 C7.37105263,18.5984211 7.44978947,18.6238947 7.50073684,18.5463158 C7.57947368,18.4942105 7.57947368,18.4154737 7.47526316,18.3124211 C7.37105263,18.2336842 7.29347368,18.2082105 7.24136842,18.2603158 C7.18926316,18.3124211 7.18926316,18.39 7.268,18.4942105 L7.268,18.4942105 Z M7.94305263,19.1958947 C8.02063158,19.1437895 8.02063158,19.0395789 7.94305263,18.9353684 C7.86547368,18.8056842 7.78673684,18.7802105 7.70915789,18.8323158 C7.60494737,18.8832632 7.60494737,18.962 7.70915789,19.0916842 C7.78673684,19.2213684 7.86547368,19.2734737 7.94305263,19.1958947 L7.94305263,19.1958947 Z M8.25452632,19.7678947 C8.38536842,19.8975789 8.48842105,19.8975789 8.56715789,19.82 C8.61926316,19.7412632 8.61926316,19.6370526 8.48842105,19.534 C8.38536842,19.4297895 8.28115789,19.4031579 8.20242105,19.5073684 C8.12484211,19.5849474 8.15147368,19.6636842 8.25452632,19.7678947 L8.25452632,19.7678947 Z M9.11252632,20.2611579 C9.24221053,20.3132632 9.34642105,20.2877895 9.37305263,20.1835789 C9.39852632,20.0793684 9.34642105,20.0017895 9.19010526,19.9496842 C9.06042105,19.9230526 8.95621053,19.9496842 8.90526316,20.0538947 C8.87863158,20.1569474 8.93073684,20.2356842 9.11252632,20.2611579 L9.11252632,20.2611579 Z M10.0747368,20.4174737 C10.2298947,20.4174737 10.3086316,20.3653684 10.3086316,20.2356842 C10.3086316,20.1314737 10.2044211,20.0793684 10.0481053,20.1048421 C9.89178947,20.1048421 9.81421053,20.1569474 9.81421053,20.2356842 C9.81421053,20.3653684 9.89178947,20.4174737 10.0747368,20.4174737 L10.0747368,20.4174737 Z M11.14,20.1048421 C11.1133684,20.0017895 11.0357895,19.9496842 10.8794737,19.9751579 C10.7243158,20.0017895 10.6455789,20.0793684 10.6722105,20.1835789 C10.6976842,20.3132632 10.7764211,20.3387368 10.9315789,20.3132632 C11.0878947,20.2611579 11.1654737,20.2090526 11.14,20.1048421 L11.14,20.1048421 Z" id="Fill-195" fill="#0A0B09" sketch:type="MSShapeGroup"></path>
            </g>
        </g>
    </g>
</svg>